HIERARCHY
ROOT Hips
{
  OFFSET 54.1177 95.6983 11.5625
  CHANNELS 6 Xposition Yposition Zposition Zrotation Xrotation Yrotation
  JOINT spine
  {
    OFFSET 0 7.96568 0.458067
    CHANNELS 3 Zrotation Xrotation Yrotation
    JOINT spine1
    {
      OFFSET 0 10.2431 0
      CHANNELS 3 Zrotation Xrotation Yrotation
      JOINT spine2
      {
        OFFSET 0 9.81475 0
        CHANNELS 3 Zrotation Xrotation Yrotation
        JOINT Neck
        {
          OFFSET 0 25.1986 1.20138
          CHANNELS 3 Zrotation Xrotation Yrotation
          JOINT Head
          {
            OFFSET 0 7.61315 0
            CHANNELS 3 Zrotation Xrotation Yrotation
            End Site
            {
              OFFSET 0 18.4281 -6.07733
            }
          }
        }
        JOINT RightShoulder
        {
          OFFSET -4.1327 10.5992 -0.575451
          CHANNELS 3 Zrotation Xrotation Yrotation
          JOINT RightArm
          {
            OFFSET 0 13.9018 0
            CHANNELS 3 Zrotation Xrotation Yrotation
            JOINT RightArmRoll
            {
              OFFSET 0 7.01789 0
              CHANNELS 3 Zrotation Xrotation Yrotation
              JOINT RightForeArm
              {
                OFFSET 0 20.4406 0
                CHANNELS 3 Zrotation Xrotation Yrotation
                JOINT RightForeArmRoll
                {
                  OFFSET 0 7.87515 0
                  CHANNELS 3 Zrotation Xrotation Yrotation
                  JOINT RightHand
                  {
                    OFFSET 0 15.8037 0
                    CHANNELS 3 Zrotation Xrotation Yrotation
                    End Site
                    {
                      OFFSET 0 0 0
                    }
                  }
                }
              }
            }
          }
        }
        JOINT LeftShoulder
        {
          OFFSET 4.1327 10.5992 -0.575451
          CHANNELS 3 Zrotation Xrotation Yrotation
          JOINT LeftArm
          {
            OFFSET 0 13.9018 0
            CHANNELS 3 Zrotation Xrotation Yrotation
            JOINT LeftArmRoll
            {
              OFFSET 0 7.01789 0
              CHANNELS 3 Zrotation Xrotation Yrotation
              JOINT LeftForeArm
              {
                OFFSET 0 20.4406 0
                CHANNELS 3 Zrotation Xrotation Yrotation
                JOINT LeftForeArmRoll
                {
                  OFFSET 0 7.87516 0
                  CHANNELS 3 Zrotation Xrotation Yrotation
                  JOINT LeftHand
                  {
                    OFFSET 0 15.8037 0
                    CHANNELS 3 Zrotation Xrotation Yrotation
                    End Site
                    {
                      OFFSET 0 0 0
                    }
                  }
                }
              }
            }
          }
        }
      }
    }
  }
  JOINT RightUpLeg
  {
    OFFSET -7.06048 -1.2947 -1.08609
    CHANNELS 3 Zrotation Xrotation Yrotation
    JOINT RightUpLegRoll
    {
      OFFSET 0 18.5308 0
      CHANNELS 3 Zrotation Xrotation Yrotation
      JOINT RightLeg
      {
        OFFSET 0 -22.9476 0
        CHANNELS 3 Zrotation Xrotation Yrotation
        JOINT RightLegRoll
        {
          OFFSET 0 23.0226 0
          CHANNELS 3 Zrotation Xrotation Yrotation
          JOINT RightFoot
          {
            OFFSET 0 19.1625 0
            CHANNELS 3 Zrotation Xrotation Yrotation
            JOINT RightToeBase
            {
              OFFSET 0 16.0188 0
              CHANNELS 3 Zrotation Xrotation Yrotation
              End Site
              {
                OFFSET 0.00678979 7.75782 -0.894206
              }
            }
          }
        }
      }
    }
  }
  JOINT LeftUpLeg
  {
    OFFSET 7.06048 -1.2947 -1.08609
    CHANNELS 3 Zrotation Xrotation Yrotation
    JOINT LeftUpLegRoll
    {
      OFFSET 0 18.5309 0
      CHANNELS 3 Zrotation Xrotation Yrotation
      JOINT LeftLeg
      {
        OFFSET 0 22.9475 0
        CHANNELS 3 Zrotation Xrotation Yrotation
        JOINT LeftLegRoll
        {
          OFFSET 0 23.2355 0
          CHANNELS 3 Zrotation Xrotation Yrotation
          JOINT LeftFoot
          {
            OFFSET 0 18.9496 0
            CHANNELS 3 Zrotation Xrotation Yrotation
            JOINT LeftToeBase
            {
              OFFSET 0 16.0188 0
              CHANNELS 3 Zrotation Xrotation Yrotation
              End Site
              {
                OFFSET -0.0304289 7.75782 -0.894206
              }
            }
          }
        }
      }
    }
  }
}
MOTION
Frames: 10
Frame Time: 0.00208333
53.971 95.6455 12.4453 -0.622405 -2.81992 1.19661 0.211213 -2.01994 0.121477 0.422432 -0.0383851 0.223504 0.419884 1.60667 0.216499 -1.08806 27.5776 0.0684892 -0.202218 0.137542 -0.374385 71.5817 3.08391 -0.0622207 104.918 17.634 21.6453 -6.84165e-006 4.47124e-006 3.00149e-006 2.31538 0.0223203 -0.236724 -5.75923e-006 -4.53921e-006 -3.04717 8.02998 -4.95138 0.697659 -74.9879 0.755356 1.55128 -104.702 20.4333 -20.9498 -3.52008e-006 3.09774e-006 -8.45384e-006 0.628195 0.00199902 -0.327228 6.54794e-006 1.94832e-006 3.02131 -8.03028 -4.95139 -0.697635 176.169 -4.2632 -2.22896 -180 7.0151e-015 178.773 177.951 5.23712 179.583 1.58977e-007 3.62128e-006 0.0990137 -19.8018 69.0997 20.5085 8.15965 25.6361 -2.95751 -172.689 -1.13258 -0.194991 4.54188e-006 -4.6773e-006 -1.16302 -1.63906 -7.13633 0.17732 -8.75559e-007 3.14676e-006 -0.0795269 19.0168 69.0659 -20.4448 -8.13649 25.2327 3.48774 
53.9712 95.646 12.4456 -0.624813 -2.81923 1.19535 0.211208 -2.01987 0.122108 0.422028 -0.0400415 0.223135 0.419476 1.60501 0.216153 -1.09152 27.5859 0.0685747 -0.196289 0.141906 -0.375119 71.5823 3.08768 -0.0605365 104.922 17.6266 21.6434 -6.84165e-006 4.47124e-006 3.00149e-006 2.31967 0.0223186 -0.236727 -5.75923e-006 -4.53921e-006 -3.04718 8.02998 -4.95138 0.697659 -74.9962 0.758593 1.55083 -104.68 20.417 -20.9569 -3.52008e-006 3.09774e-006 -8.45384e-006 0.615567 0.00199903 -0.32775 6.54794e-006 1.94832e-006 3.02139 -8.03028 -4.95139 -0.697635 176.171 -4.26991 -2.22959 -180 7.0151e-015 178.773 177.95 5.22403 179.583 1.58977e-007 3.62128e-006 0.0987805 -19.7933 69.0907 20.4994 8.1597 25.6369 -2.95575 -172.682 -1.13849 -0.20748 4.54188e-006 -4.6773e-006 -1.16326 -1.6502 -7.12638 0.176226 -8.75559e-007 3.14676e-006 -0.0790879 19.0205 69.0611 -20.4405 -8.13649 25.2327 3.48774 
53.9757 95.6528 12.432 -0.627269 -2.81842 1.19414 0.2112 -2.01976 0.122759 0.421588 -0.0417431 0.222705 0.41903 1.60331 0.215752 -1.09433 27.5944 0.0684967 -0.190777 0.146281 -0.375802 71.5829 3.0913 -0.0589251 104.926 17.6197 21.6415 -6.84165e-006 4.47124e-006 3.00149e-006 2.32352 0.022316 -0.236759 -5.75923e-006 -4.53921e-006 -3.04719 8.02998 -4.95138 0.697659 -75.0033 0.761578 1.55034 -104.661 20.4014 -20.963 -3.52008e-006 3.09774e-006 -8.45384e-006 0.603414 0.00199903 -0.328196 6.54794e-006 1.94832e-006 3.02151 -8.03028 -4.95139 -0.697635 176.174 -4.27662 -2.23019 -180 7.0151e-015 178.773 177.948 5.2106 179.583 1.58977e-007 3.62128e-006 0.0985347 -19.7845 69.0814 20.49 8.15975 25.6377 -2.95395 -172.675 -1.14444 -0.220423 4.54188e-006 -4.6773e-006 -1.16349 -1.66177 -7.11601 0.175093 -8.75559e-007 3.14676e-006 -0.0786194 19.0243 69.056 -20.436 -8.13649 25.2327 3.48774 
53.9728 95.6523 12.44 -0.629757 -2.81753 1.19296 0.211191 -2.01963 0.123424 0.421122 -0.0434763 0.22223 0.418559 1.60158 0.215311 -1.09667 27.6029 0.0683042 -0.185556 0.150663 -0.376451 71.5835 3.09482 -0.0573647 104.931 17.6132 21.6396 -6.84165e-006 4.47124e-006 3.00149e-006 2.32706 0.0223129 -0.236811 -5.75923e-006 -4.53921e-006 -3.0472 8.02998 -4.95138 0.697659 -75.0094 0.764386 1.54982 -104.643 20.3861 -20.9683 -3.52008e-006 3.09774e-006 -8.45384e-006 0.591591 0.00199904 -0.328588 6.54794e-006 1.94832e-006 3.02164 -8.03028 -4.95139 -0.697635 176.176 -4.28334 -2.23076 -180 7.0151e-015 178.773 177.947 5.19696 179.583 1.58977e-007 3.62128e-006 0.0982801 -19.7756 69.0718 20.4804 8.15981 25.6384 -2.95212 -172.667 -1.15043 -0.233684 4.54188e-006 -4.6773e-006 -1.16372 -1.67365 -7.10533 0.173933 -8.75559e-007 3.14676e-006 -0.0781301 19.0281 69.0507 -20.4313 -8.13649 25.2327 3.48774 
53.9681 95.651 12.4495 -0.632265 -2.8166 1.19179 0.21118 -2.01949 0.124098 0.420641 -0.0452276 0.22173 0.418072 1.59983 0.214848 -1.09875 27.6115 0.0680463 -0.180502 0.15505 -0.377079 71.5841 3.09827 -0.0558334 104.936 17.6068 21.6378 -6.84165e-006 4.47124e-006 3.00149e-006 2.33041 0.0223095 -0.236875 -5.75923e-006 -4.53921e-006 -3.04722 8.02998 -4.95138 0.697659 -75.0151 0.767092 1.54929 -104.627 20.371 -20.9733 -3.52008e-006 3.09774e-006 -8.45384e-006 0.579958 0.00199904 -0.328949 6.54794e-006 1.94832e-006 3.02178 -8.03028 -4.95139 -0.697635 176.179 -4.29005 -2.23133 -180 7.0151e-015 178.773 177.945 5.18318 179.582 1.58977e-007 3.62128e-006 0.0980204 -19.7665 69.0622 20.4707 8.15986 25.6392 -2.95027 -172.66 -1.15644 -0.247127 4.54188e-006 -4.6773e-006 -1.16396 -1.68571 -7.09448 0.172758 -8.75559e-007 3.14676e-006 -0.077629 19.0319 69.0453 -20.4265 -8.13649 25.2327 3.48774 
53.9683 95.6533 12.4503 -0.634778 -2.81565 1.19063 0.211169 -2.01935 0.124775 0.420156 -0.0469835 0.221224 0.417582 1.59807 0.21438 -1.10077 27.6201 0.067772 -0.17549 0.159437 -0.377702 71.5847 3.10171 -0.0543094 104.94 17.6006 21.636 -6.84165e-006 4.47124e-006 3.00149e-006 2.33372 0.022306 -0.236941 -5.75923e-006 -4.53921e-006 -3.04723 8.02998 -4.95138 0.697659 -75.0206 0.769773 1.54875 -104.611 20.356 -20.9781 -3.52008e-006 3.09774e-006 -8.45384e-006 0.568372 0.00199904 -0.329302 6.54794e-006 1.94832e-006 3.02192 -8.03028 -4.95139 -0.697635 176.181 -4.29677 -2.23189 -180 7.0151e-015 178.773 177.944 5.16939 179.582 1.58977e-007 3.62128e-006 0.0977595 -19.7574 69.0525 20.461 8.15992 25.64 -2.94842 -172.652 -1.16245 -0.260616 4.54188e-006 -4.6773e-006 -1.16419 -1.6978 -7.08358 0.171579 -8.75559e-007 3.14676e-006 -0.077125 19.0357 69.0399 -20.4217 -8.13649 25.2327 3.48774 
53.969 95.656 12.4484 -0.63728 -2.81473 1.18946 0.211159 -2.01922 0.125446 0.419678 -0.0487303 0.220731 0.4171 1.59633 0.213923 -1.10291 27.6286 0.0675304 -0.170395 0.163823 -0.378335 71.5852 3.10518 -0.0527708 104.945 17.5942 21.6342 -6.84165e-006 4.47124e-006 3.00149e-006 2.33712 0.0223026 -0.237002 -5.75923e-006 -4.53921e-006 -3.04725 8.02998 -4.95138 0.697659 -75.0264 0.772505 1.54822 -104.594 20.3409 -20.9831 -3.52008e-006 3.09774e-006 -8.45384e-006 0.556692 0.00199905 -0.329671 6.54794e-006 1.94832e-006 3.02206 -8.03028 -4.95139 -0.697635 176.184 -4.30349 -2.23245 -180 7.0151e-015 178.773 177.942 5.15566 179.582 1.58977e-007 3.62128e-006 0.0975011 -19.7484 69.0429 20.4513 8.15997 25.6408 -2.94658 -172.645 -1.16845 -0.274014 4.54188e-006 -4.6773e-006 -1.16443 -1.70981 -7.07278 0.170408 -8.75559e-007 3.14676e-006 -0.0766269 19.0394 69.0345 -20.417 -8.13649 25.2327 3.48774 
53.966 95.6585 12.4524 -0.63976 -2.81387 1.18827 0.21115 -2.01909 0.126108 0.419219 -0.0504544 0.220269 0.416636 1.5946 0.213493 -1.10539 27.6371 0.0673705 -0.16509 0.168203 -0.378993 71.5858 3.10873 -0.0511957 104.95 17.5875 21.6324 -6.84165e-006 4.47124e-006 3.00149e-006 2.34075 0.0222997 -0.237049 -5.75923e-006 -4.53921e-006 -3.04726 8.02998 -4.95138 0.697659 -75.0328 0.775363 1.54771 -104.576 20.3255 -20.9887 -3.52008e-006 3.09774e-006 -8.45384e-006 0.544774 0.00199905 -0.330078 6.54794e-006 1.94832e-006 3.02219 -8.03028 -4.95139 -0.697635 176.186 -4.3102 -2.23303 -180 7.0151e-015 178.773 177.941 5.14206 179.582 1.58977e-007 3.62128e-006 0.097249 -19.7395 69.0334 20.4418 8.16002 25.6416 -2.94476 -172.637 -1.17443 -0.287185 4.54188e-006 -4.6773e-006 -1.16466 -1.7216 -7.06218 0.169256 -8.75559e-007 3.14676e-006 -0.0761436 19.0432 69.0292 -20.4123 -8.13649 25.2327 3.48774 
53.9655 95.654 12.457 -0.6422 -2.81309 1.18705 0.211143 -2.019 0.126753 0.41879 -0.0521425 0.219857 0.416201 1.59291 0.213108 -1.10839 27.6455 0.0673415 -0.159453 0.172574 -0.379692 71.5864 3.11239 -0.0495624 104.954 17.5805 21.6305 -6.84165e-006 4.47124e-006 3.00149e-006 2.34473 0.0222974 -0.237072 -5.75923e-006 -4.53921e-006 -3.04727 8.02998 -4.95138 0.697659 -75.0402 0.778424 1.54723 -104.556 20.3097 -20.995 -3.52008e-006 3.09774e-006 -8.45384e-006 0.532479 0.00199906 -0.330547 6.54794e-006 1.94832e-006 3.0223 -8.03028 -4.95139 -0.697635 176.189 -4.31691 -2.23364 -180 7.0151e-015 178.773 177.94 5.12874 179.581 1.58977e-007 3.62128e-006 0.097007 -19.7309 69.0242 20.4326 8.16008 25.6423 -2.94298 -172.63 -1.18036 -0.299992 4.54188e-006 -4.6773e-006 -1.16489 -1.73305 -7.05193 0.168135 -8.75559e-007 3.14676e-006 -0.0756839 19.047 69.0242 -20.4079 -8.13649 25.2327 3.48774 
53.9653 95.6569 12.4593 -0.644589 -2.81244 1.18578 0.211139 -2.01893 0.127375 0.418401 -0.0537808 0.219514 0.415807 1.59128 0.212785 -1.11212 27.6538 0.0674923 -0.153356 0.176934 -0.380446 71.587 3.11622 -0.047849 104.957 17.5729 21.6285 -6.84165e-006 4.47124e-006 3.00149e-006 2.34921 0.022296 -0.237063 -5.75923e-006 -4.53921e-006 -3.04728 8.02998 -4.95138 0.697659 -75.049 0.781763 1.54679 -104.533 20.2932 -21.0026 -3.52008e-006 3.09774e-006 -8.45384e-006 0.519662 0.00199906 -0.3311 6.54794e-006 1.94832e-006 3.02237 -8.03028 -4.95139 -0.697635 176.191 -4.32362 -2.23428 -180 7.0151e-015 178.773 177.938 5.11577 179.581 1.58977e-007 3.62128e-006 0.0967789 -19.7225 69.0153 20.4237 8.16013 25.6431 -2.94123 -172.623 -1.18625 -0.312299 4.54188e-006 -4.6773e-006 -1.16512 -1.74401 -7.04215 0.167056 -8.75559e-007 3.14676e-006 -0.0752567 19.0508 69.0196 -20.4038 -8.13649 25.2327 3.48774 
